# AST/ASF file generated using VICON BodyLanguage
# -----------------------------------------------
:version 1.10
:name VICON
:units
  mass 1.0
  length 0.45
  angle deg
:documentation
   .ast/.asf automatically generated from VICON data using
   VICON BodyBuilder and BodyLanguage model FoxedUp or BRILLIANT.MOD
:root
   order TX TY TZ RX RY RZ
   axis XYZ
   position 0 0 0  
   orientation 0 0 0 
:bonedata
  begin
     id 1 
     name lhipjoint
     direction 0.573633 -0.743009 0.344793 
     length 2.46257 
     axis 0 0 0  XYZ
  end
  begin
     id 2 
     name lfemur
     direction 0.34202 -0.939693 0  
     length 7.3842  
     axis 0 0 20  XYZ
    dof rx ry rz
    limits (-160.0 20.0)
           (-70.0 70.0)
           (-60.0 70.0)
  end
  begin
     id 3 
     name ltibia
     direction 0.34202 -0.939693 0   
     length 7.50407   
     axis 0 0 20   XYZ
    dof rx
    limits (-10.0 170.0)
  end
  begin
     id 4 
     name lfoot
     direction 0.110749 -0.304281 0.946123   
     length 1.95925   
     axis -90 7.62852e-016 20   XYZ
    dof rx rz
    limits (-45.0 90.0)
           (-70.0 20.0)
  end
  begin
     id 5 
     name ltoes
     direction 1.53554e-011 -4.21843e-011 1   
     length 0.978318   
     axis -90 7.62852e-016 20   XYZ
    dof rx
    limits (-90.0 20.0)
  end
  begin
     id 6 
     name rhipjoint
     direction -0.488109 -0.791693 0.367385   
     length 2.31113  
     axis 0 0 0  XYZ 
  end
  begin
     id 7 
     name rfemur
     direction -0.34202 -0.939693 0   
     length 7.40965   
     axis 0 0 -20   XYZ
    dof rx ry rz
    limits (-160.0 20.0)
           (-70.0 70.0)
           (-70.0 60.0)
  end
  begin
     id 8 
     name rtibia
     direction -0.34202 -0.939693 0   
     length 7.55548   
     axis 0 0 -20   XYZ
    dof rx
    limits (-10.0 170.0)
 end
 begin
     id 9 
     name rfoot
     direction -0.127594 -0.350561 0.927808   
     length 2.07199  
     axis -90 -7.62852e-016 -20   XYZ
    dof rx rz
    limits (-45.0 90.0)
           (-20.0 70.0)
  end
  begin
     id 10 
     name rtoes
     direction -1.53542e-011 -4.21909e-011 1   
     length 1.02667   
     axis -90 -7.62852e-016 -20   XYZ
    dof rx
    limits (-90.0 20.0)
  end
  begin
     id 11 
     name lowerback
     direction -0.0103342 0.997298 -0.0727278   
     length 2.02836   
     axis 0 0 0   XYZ
    dof rx ry rz
    limits (-20.0 45.0)
           (-30.0 30.0)
           (-30.0 30.0)
  end
  begin
     id 12 
     name upperback
     direction 0.0171146 0.999786 -0.011606   
     length 2.03179   
     axis 0 0 0   XYZ
    dof rx ry rz
    limits (-20.0 45.0)
           (-30.0 30.0)
           (-30.0 30.0)
  end
  begin
     id 13 
     name thorax
     direction 0.0216927 0.999513 0.0224343   
     length 2.03882   
     axis 0 0 0   XYZ
    dof rx ry rz
    limits (-20.0 45.0)
           (-30.0 30.0)
           (-30.0 30.0)
  end
  begin
     id 14 
     name lowerneck
     direction 0.000989287 0.993907 0.110221   
     length 1.75428   
     axis 0 0 0   XYZ
    dof rx ry rz
    limits (-20.0 45.0)
           (-30.0 30.0)
           (-30.0 30.0)
  end
  begin
     id 15 
     name upperneck
     direction -0.0172474 0.994813 -0.100253   
     length 1.77058   
     axis 0 0 0   XYZ
    dof rx ry rz
    limits (-20.0 45.0)
           (-30.0 30.0)
           (-30.0 30.0)
  end
  begin
     id 16
     name head
     direction -0.00486455 0.99894 -0.0457663  
     length 1.77427  
     axis 0 0 0   XYZ
    dof rx ry rz
    limits (-20.0 45.0)
           (-30.0 30.0)
           (-30.0 30.0)
  end
  begin
     id 17 
     name lclavicle
     direction 0.927314 0.333734 -0.169441  
     length 3.97584  
     axis 0 0 0   XYZ
    dof ry rz
    limits (-20.0 10.0)
           (0.0 20.0)
  end
  begin
     id 18 
     name lhumerus
     direction 1 -4.48965e-011 -3.25313e-028   
     length 4.76468   
     axis 180 -30 -90   XYZ
    dof rx ry rz
    limits (-60.0 90.0)
           (-90.0 90.0)
           (-90.0 90.0)
  end
  begin
     id 19
     name lradius
     direction 1 -4.48969e-011 -2.8465e-028   
     length 3.52712   
     axis -180 -30 -90   XYZ
    dof rx
    limits (-10.0 170.0)
  end
  begin
     id 20
     name lwrist
     direction 1 -4.4896e-011 -7.78665e-028   
     length 1.76356   
     axis 1.91374e-015 90 90   XYZ
    dof ry
    limits (-180.0 0.0)
 end
  begin
     id 21 
     name lhand
     direction 1 -4.48959e-011 -1.55733e-027   
     length 0.859564   
     axis 9.9371e-016 90 90   XYZ
    dof rx rz
    limits (-90.0 90.0)
           (-45.0 45.0)
  end
  begin
     id 22 
     name lfingers
     direction 1 -4.48965e-011 -3.11466e-027   
     length 0.693002   
     axis 1.98742e-015 90 90   XYZ
    dof rx
    limits (0.0 90.0)
  end
  begin
     id 23
     name lthumb
     direction 0.707107 -6.34948e-011 0.707107   
     length 0.995017   
     axis -90 45 2.85299e-015   XYZ
    dof rx rz
    limits (-45.0 45.0)
           (-45.0 45.0)
  end
  begin
     id 24 
     name rclavicle
     direction -0.899388 0.348209 -0.264294   
     length 3.68366  
     axis 0 0 0   XYZ 
    dof ry rz
    limits (-10.0 20.0)
           (-20.0 0.0)
  end
  begin
     id 25 
     name rhumerus
     direction -1 -4.48965e-011 -3.01536e-027  
     length 4.90577   
     axis 180 30 90   XYZ
    dof rx ry rz
    limits (-90.0 60.0)
           (-90.0 90.0)
           (-90.0 90.0)
  end
  begin
     id 26 
     name rradius
     direction -1 -4.48966e-011 3.93291e-027   
     length 3.42692   
     axis -180 30 90   XYZ
    dof rx
    limits (-10.0 170.0)
  end
  begin
     id 27 
     name rwrist
     direction -1 -4.48969e-011 -7.78665e-028   
     length 1.71346   
     axis 1.91374e-015 -90 -90   XYZ
    dof ry
    limits (-180.0 0.0)
  end
  begin
     id 28
     name rhand
     direction -1 -4.48967e-011 -1.55733e-027   
     length 0.740957   
     axis 9.9371e-016 -90 -90   XYZ
    dof rx rz
    limits (-90.0 90.0)
           (-45.0 45.0)
  end
  begin
     id 29
     name rfingers
     direction -1 -4.48949e-011 -3.11466e-027   
     length 0.597378   
     axis 1.98742e-015 -90 -90   XYZ
    dof rx
    limits (0.0 90.0)
  end
  begin
     id 30
     name rthumb
     direction -0.707107 -6.34931e-011 0.707107   
     length 0.857719   
     axis -90 -45 -2.85299e-015   XYZ
    dof rx rz
    limits (-45.0 45.0)
           (-45.0 45.0)
  end
:hierarchy
  begin
    root lhipjoint rhipjoint lowerback
    lhipjoint lfemur
    lfemur ltibia
    ltibia lfoot
    lfoot ltoes
    rhipjoint rfemur
    rfemur rtibia
    rtibia rfoot
    rfoot rtoes
    lowerback upperback
    upperback thorax
    thorax lowerneck lclavicle rclavicle
    lowerneck upperneck
    upperneck head
    lclavicle lhumerus
    lhumerus lradius
    lradius lwrist
    lwrist lhand lthumb
    lhand lfingers
    rclavicle rhumerus
    rhumerus rradius
    rradius rwrist
    rwrist rhand rthumb
    rhand rfingers
  end

#!OML:ASF E:\I on waltz\AllaLogoMonkeySwing\Project 1\Capture day 1\Session 1\Subject1.ASF
:FULLY-SPECIFIED
:DEGREES
94
root -4.44279 17.2608 -16.9195 1.33549 20.4504 1.07279
lowerback 8.17658 -0.63827 -3.21358
upperback 1.07483 -1.11379 0.377559
thorax -3.40152 -0.507538 2.31961
lowerneck -6.22704 -8.06796 -7.77759
upperneck 14.2022 -10.5234 3.48085
head 5.92297 -5.28849 1.5712
rclavicle -6.02908e-014 -4.44781e-015
rhumerus -19.9434 -18.1485 -84.3098
rradius 24.7402
rwrist 4.44576
rhand -10.5305 -39.7861
rfingers 7.12502
rthumb 15.4727 -69.1869
lclavicle -6.02908e-014 -4.44781e-015
lhumerus -32.4532 28.6685 81.3641
lradius 39.0165
lwrist -2.47494
lhand -9.20074 -14.265
lfingers 7.12502
lthumb 16.7532 15.0321
rfemur -11.5951 -3.45199 22.5817
rtibia 40.087
rfoot -28.9373 -13.9171
rtoes 26.2627
lfemur -17.7999 -0.128485 -21.1546
ltibia 39.9604
lfoot -22.4962 5.92161
ltoes -21.9979
95
root -4.44515 17.2508 -16.9362 1.07741 20.5771 0.935114
lowerback 8.40411 -0.584995 -2.79863
upperback 1.11961 -1.0135 0.33521
thorax -3.49634 -0.461976 2.03482
lowerneck -6.84179 -7.87448 -7.75372
upperneck 15.3614 -10.2055 3.22474
head 6.36259 -5.14297 1.47067
rclavicle -7.26682e-014 9.86469e-015
rhumerus -20.0534 -18.1272 -84.6485
rradius 24.7429
rwrist 4.11274
rhand -10.7354 -39.8228
rfingers 7.12502
rthumb 15.2753 -69.2387
lclavicle -7.26682e-014 9.86469e-015
lhumerus -32.007 28.4666 81.7675
lradius 39.0326
lwrist -2.73185
lhand -8.0864 -14.4951
lfingers 7.12502
lthumb 17.8257 14.7079
rfemur -11.4553 -3.62662 22.6711
rtibia 40.1604
rfoot -28.9155 -13.8529
rtoes 26.0282
lfemur -17.8208 -0.0645618 -20.9843
ltibia 40.3415
lfoot -22.651 5.8141
ltoes -22.194
96
root -4.44538 17.2406 -16.957 0.847924 20.6425 0.656353
lowerback 8.66325 -0.526641 -2.23828
upperback 1.09019 -0.890159 0.361327
thorax -3.68644 -0.405015 1.73711
lowerneck -7.35845 -7.61935 -7.52281
upperneck 16.4335 -9.78054 2.67832
head 6.73147 -4.95974 1.26467
rclavicle 4.44781e-015 3.03147e-015
rhumerus -20.1753 -18.0259 -84.8757
rradius 24.6127
rwrist 3.90723
rhand -10.7946 -39.5203
rfingers 7.12502
rthumb 15.2184 -68.9405
lclavicle 4.44781e-015 3.03147e-015
lhumerus -31.8641 28.5325 82.0253
lradius 39.2768
lwrist -2.98396
lhand -6.82141 -14.6067
lfingers 7.12502
lthumb 19.0426 14.4811
rfemur -11.4481 -3.7406 22.8807
rtibia 40.2635
rfoot -28.9751 -13.5847
rtoes 26.6348
lfemur -17.9837 0.0932611 -20.6629
ltibia 40.861
lfoot -22.9223 5.85063
ltoes -22.5753
97
root -4.44471 17.2296 -16.9787 0.690067 20.6346 0.471488
lowerback 8.83488 -0.451191 -1.82431
upperback 1.07545 -0.752181 0.407016
thorax -3.80857 -0.340572 1.53793
lowerneck -7.91041 -7.27906 -7.45525
upperneck 17.5817 -9.24465 2.3468
head 7.15158 -4.71958 1.16133
rclavicle 1.37721e-014 -2.73329e-015
rhumerus -20.3164 -17.9751 -85.0173
rradius 24.4919
rwrist 3.98354
rhand -10.7459 -39.1464
rfingers 7.12502
rthumb 15.2652 -68.5631
lclavicle 1.37721e-014 -2.73329e-015
lhumerus -31.997 28.6286 82.2435
lradius 39.8927
lwrist -3.07836
lhand -5.72808 -14.5094
lfingers 7.12502
lthumb 20.0937 14.4715
rfemur -11.4917 -3.73772 23.004
rtibia 40.3794
rfoot -29.0233 -13.288
rtoes 27.1228
lfemur -18.2341 0.392558 -20.412
ltibia 41.5335
lfoot -23.4419 5.92687
ltoes -23.4107
98
root -4.43897 17.2158 -17.0004 0.43191 20.6085 0.128278
lowerback 8.99322 -0.37424 -1.19877
upperback 1.10939 -0.588299 0.468797
thorax -3.87378 -0.267632 1.23188
lowerneck -8.54522 -6.92327 -7.46022
upperneck 18.9159 -8.69302 2.16265
head 7.66463 -4.46742 1.11606
rclavicle -3.51787e-014 6.65929e-015
rhumerus -20.48 -18.3141 -85.0929
rradius 24.3764
rwrist 4.33037
rhand -10.4679 -38.8514
rfingers 7.12502
rthumb 15.533 -68.2475
lclavicle -3.51787e-014 6.65929e-015
lhumerus -32.0052 28.7312 82.4225
lradius 40.2533
lwrist -3.11668
lhand -4.91245 -14.5235
lfingers 7.12502
lthumb 20.8775 14.3731
rfemur -11.4659 -3.88749 23.267
rtibia 40.4804
rfoot -28.9842 -13.0552
rtoes 26.7302
lfemur -18.4953 0.652094 -19.9759
ltibia 42.3479
lfoot -24.0476 5.90885
ltoes -24.8961
